#Comment line ignore any data following # character 
#Hierarchical Translation and Rotation (.htr) file 
[Header]	
#Header keywords are followed by a single value 
FileType HTR		#Single word string
DataType HTRS		#Translation followed by rotation and scale data
FileVersion 1		#integer
NumSegments 84		#integer
NumFrames 2		#integer
DataFrameRate 30		#integer, data frame rate in this file
EulerRotationOrder ZYX
CalibrationUnits mm
RotationUnits Degrees
GlobalAxisofGravity Y
BoneLengthAxis Y
ScaleFactor 1.00
[SegmentNames&Hierarchy]
#CHILD	PARENT
MASTER GLOBAL
root MASTER
chest root
L_mid_tent01 root
R_mid_tent01 root
spine01 root
Bip01_Neck chest
L_humerus chest
R_humerus chest
weapon_bone chest
Bip01_Head Bip01_Neck
eye_left_bone Bip01_Head
eye_right_bone Bip01_Head
L_forearm L_humerus
L_front_hand L_forearm
L_weapon_bone L_forearm
L_front_hand01_01 L_front_hand
L_front_hand02_01 L_front_hand
L_front_hand03_01 L_front_hand
L_front_hand01_02 L_front_hand01_01
L_front_hand02_02 L_front_hand02_01
L_front_hand03_02 L_front_hand03_01
R_forearm R_humerus
R_front_hand R_forearm
R_weapon_bone R_forearm
R_front_hand01_01 R_front_hand
R_front_hand02_01 R_front_hand
R_front_hand03_01 R_front_hand
R_front_hand01_02 R_front_hand01_01
R_front_hand02_02 R_front_hand02_01
R_front_hand03_02 R_front_hand03_01
null_rope01_connect L_mid_tent01
Rope1_Seg01 null_rope01_connect
Rope1_Seg02 Rope1_Seg01
Rope1_Seg03 Rope1_Seg02
Rope1_Seg04 Rope1_Seg03
Rope1_Seg05 Rope1_Seg04
Rope1_Seg06 Rope1_Seg05
Rope1_Seg07 Rope1_Seg06
Rope1_Seg09 Rope1_Seg07
L_mid_hand01 Rope1_Seg09
L_mid_hand02 Rope1_Seg09
L_mid_hand03 Rope1_Seg09
null_rope02_connect R_mid_tent01
Rope2_Seg01 null_rope02_connect
Rope2_Seg02 Rope2_Seg01
Rope2_Seg03 Rope2_Seg02
Rope2_Seg04 Rope2_Seg03
Rope2_Seg05 Rope2_Seg04
Rope2_Seg06 Rope2_Seg05
Rope2_Seg07 Rope2_Seg06
Rope2_Seg09 Rope2_Seg07
R_mid_hand01 Rope2_Seg09
R_mid_hand02 Rope2_Seg09
R_mid_hand03 Rope2_Seg09
spine02 spine01
spine03 spine02
pelvis spine03
null_rope03_connect pelvis
null_rope04_connect pelvis
Rope3_Seg01 null_rope03_connect
Rope3_Seg02 Rope3_Seg01
Rope3_Seg03 Rope3_Seg02
Rope3_Seg04 Rope3_Seg03
Rope3_Seg05 Rope3_Seg04
Rope3_Seg06 Rope3_Seg05
Rope3_Seg07 Rope3_Seg06
Rope3_Seg08 Rope3_Seg07
Rope3_Seg09 Rope3_Seg08
R_rear_hand01 Rope3_Seg09
R_rear_hand02 Rope3_Seg09
R_rear_hand03 Rope3_Seg09
Rope4_Seg01 null_rope04_connect
Rope4_Seg02 Rope4_Seg01
Rope4_Seg03 Rope4_Seg02
Rope4_Seg04 Rope4_Seg03
Rope4_Seg05 Rope4_Seg04
Rope4_Seg06 Rope4_Seg05
Rope4_Seg07 Rope4_Seg06
Rope4_Seg08 Rope4_Seg07
Rope4_Seg09 Rope4_Seg08
L_rear_hand01 Rope4_Seg09
L_rear_hand02 Rope4_Seg09
L_rear_hand03 Rope4_Seg09
[BasePosition]
#SegmentName Tx, Ty, Tz, Rx, Ry, Rz, BoneLength
MASTER 0.000000 0.000000 0.000000 -90.000000 0.000000 0.000000 10.000000 
root 0.000000 0.000000 0.000000 0.000000 0.000000 0.000000 10.000000 
chest 0.000000 0.000000 0.000000 0.000000 0.000000 0.000000 10.000000 
L_mid_tent01 0.000000 0.000000 0.000000 0.000000 0.000000 0.000000 10.000000 
R_mid_tent01 0.000000 0.000000 0.000000 0.000000 0.000000 0.000000 10.000000 
spine01 0.000000 0.000000 0.000000 0.000000 0.000000 0.000000 10.000000 
Bip01_Neck 0.000000 0.000000 0.000000 0.000000 0.000000 0.000000 10.000000 
L_humerus 0.000000 0.000000 0.000000 0.000000 0.000000 0.000000 10.000000 
R_humerus 0.000000 0.000000 0.000000 0.000000 0.000000 0.000000 10.000000 
weapon_bone 0.000000 0.000000 0.000000 0.000000 0.000000 0.000000 10.000000 
Bip01_Head 0.000000 0.000000 0.000000 0.000000 0.000000 0.000000 10.000000 
eye_left_bone 0.000000 0.000000 0.000000 0.000000 0.000000 0.000000 10.000000 
eye_right_bone 0.000000 0.000000 0.000000 0.000000 0.000000 0.000000 10.000000 
L_forearm 0.000000 0.000000 0.000000 0.000000 0.000000 0.000000 10.000000 
L_front_hand 0.000000 0.000000 0.000000 0.000000 0.000000 0.000000 10.000000 
L_weapon_bone 0.000000 0.000000 0.000000 0.000000 0.000000 0.000000 10.000000 
L_front_hand01_01 0.000000 0.000000 0.000000 0.000000 0.000000 0.000000 10.000000 
L_front_hand02_01 0.000000 0.000000 0.000000 0.000000 0.000000 0.000000 10.000000 
L_front_hand03_01 0.000000 0.000000 0.000000 0.000000 0.000000 0.000000 10.000000 
L_front_hand01_02 0.000000 0.000000 0.000000 0.000000 0.000000 0.000000 10.000000 
L_front_hand02_02 0.000000 0.000000 0.000000 0.000000 0.000000 0.000000 10.000000 
L_front_hand03_02 0.000000 0.000000 0.000000 0.000000 0.000000 0.000000 10.000000 
R_forearm 0.000000 0.000000 0.000000 0.000000 0.000000 0.000000 10.000000 
R_front_hand 0.000000 0.000000 0.000000 0.000000 0.000000 0.000000 10.000000 
R_weapon_bone 0.000000 0.000000 0.000000 0.000000 0.000000 0.000000 10.000000 
R_front_hand01_01 0.000000 0.000000 0.000000 0.000000 0.000000 0.000000 10.000000 
R_front_hand02_01 0.000000 0.000000 0.000000 0.000000 0.000000 0.000000 10.000000 
R_front_hand03_01 0.000000 0.000000 0.000000 0.000000 0.000000 0.000000 10.000000 
R_front_hand01_02 0.000000 0.000000 0.000000 0.000000 0.000000 0.000000 10.000000 
R_front_hand02_02 0.000000 0.000000 0.000000 0.000000 0.000000 0.000000 10.000000 
R_front_hand03_02 0.000000 0.000000 0.000000 0.000000 0.000000 0.000000 10.000000 
null_rope01_connect 0.000000 0.000000 0.000000 0.000000 0.000000 0.000000 10.000000 
Rope1_Seg01 0.000000 0.000000 0.000000 0.000000 0.000000 0.000000 10.000000 
Rope1_Seg02 0.000000 0.000000 0.000000 0.000000 0.000000 0.000000 10.000000 
Rope1_Seg03 0.000000 0.000000 0.000000 0.000000 0.000000 0.000000 10.000000 
Rope1_Seg04 0.000000 0.000000 0.000000 0.000000 0.000000 0.000000 10.000000 
Rope1_Seg05 0.000000 0.000000 0.000000 0.000000 0.000000 0.000000 10.000000 
Rope1_Seg06 0.000000 0.000000 0.000000 0.000000 0.000000 0.000000 10.000000 
Rope1_Seg07 0.000000 0.000000 0.000000 0.000000 0.000000 0.000000 10.000000 
Rope1_Seg09 0.000000 0.000000 0.000000 0.000000 0.000000 0.000000 10.000000 
L_mid_hand01 0.000000 0.000000 0.000000 0.000000 0.000000 0.000000 10.000000 
L_mid_hand02 0.000000 0.000000 0.000000 0.000000 0.000000 0.000000 10.000000 
L_mid_hand03 0.000000 0.000000 0.000000 0.000000 0.000000 0.000000 10.000000 
null_rope02_connect 0.000000 0.000000 0.000000 0.000000 0.000000 0.000000 10.000000 
Rope2_Seg01 0.000000 0.000000 0.000000 0.000000 0.000000 0.000000 10.000000 
Rope2_Seg02 0.000000 0.000000 0.000000 0.000000 0.000000 0.000000 10.000000 
Rope2_Seg03 0.000000 0.000000 0.000000 0.000000 0.000000 0.000000 10.000000 
Rope2_Seg04 0.000000 0.000000 0.000000 0.000000 0.000000 0.000000 10.000000 
Rope2_Seg05 0.000000 0.000000 0.000000 0.000000 0.000000 0.000000 10.000000 
Rope2_Seg06 0.000000 0.000000 0.000000 0.000000 0.000000 0.000000 10.000000 
Rope2_Seg07 0.000000 0.000000 0.000000 0.000000 0.000000 0.000000 10.000000 
Rope2_Seg09 0.000000 0.000000 0.000000 0.000000 0.000000 0.000000 10.000000 
R_mid_hand01 0.000000 0.000000 0.000000 0.000000 0.000000 0.000000 10.000000 
R_mid_hand02 0.000000 0.000000 0.000000 0.000000 0.000000 0.000000 10.000000 
R_mid_hand03 0.000000 0.000000 0.000000 0.000000 0.000000 0.000000 10.000000 
spine02 0.000000 0.000000 0.000000 0.000000 0.000000 0.000000 10.000000 
spine03 0.000000 0.000000 0.000000 0.000000 0.000000 0.000000 10.000000 
pelvis 0.000000 0.000000 0.000000 0.000000 0.000000 0.000000 10.000000 
null_rope03_connect 0.000000 0.000000 0.000000 0.000000 0.000000 0.000000 10.000000 
null_rope04_connect 0.000000 0.000000 0.000000 0.000000 0.000000 0.000000 10.000000 
Rope3_Seg01 0.000000 0.000000 0.000000 0.000000 0.000000 0.000000 10.000000 
Rope3_Seg02 0.000000 0.000000 0.000000 0.000000 0.000000 0.000000 10.000000 
Rope3_Seg03 0.000000 0.000000 0.000000 0.000000 0.000000 0.000000 10.000000 
Rope3_Seg04 0.000000 0.000000 0.000000 0.000000 0.000000 0.000000 10.000000 
Rope3_Seg05 0.000000 0.000000 0.000000 0.000000 0.000000 0.000000 10.000000 
Rope3_Seg06 0.000000 0.000000 0.000000 0.000000 0.000000 0.000000 10.000000 
Rope3_Seg07 0.000000 0.000000 0.000000 0.000000 0.000000 0.000000 10.000000 
Rope3_Seg08 0.000000 0.000000 0.000000 0.000000 0.000000 0.000000 10.000000 
Rope3_Seg09 0.000000 0.000000 0.000000 0.000000 0.000000 0.000000 10.000000 
R_rear_hand01 0.000000 0.000000 0.000000 0.000000 0.000000 0.000000 10.000000 
R_rear_hand02 0.000000 0.000000 0.000000 0.000000 0.000000 0.000000 10.000000 
R_rear_hand03 0.000000 0.000000 0.000000 0.000000 0.000000 0.000000 10.000000 
Rope4_Seg01 0.000000 0.000000 0.000000 0.000000 0.000000 0.000000 10.000000 
Rope4_Seg02 0.000000 0.000000 0.000000 0.000000 0.000000 0.000000 10.000000 
Rope4_Seg03 0.000000 0.000000 0.000000 0.000000 0.000000 0.000000 10.000000 
Rope4_Seg04 0.000000 0.000000 0.000000 0.000000 0.000000 0.000000 10.000000 
Rope4_Seg05 0.000000 0.000000 0.000000 0.000000 0.000000 0.000000 10.000000 
Rope4_Seg06 0.000000 0.000000 0.000000 0.000000 0.000000 0.000000 10.000000 
Rope4_Seg07 0.000000 0.000000 0.000000 0.000000 0.000000 0.000000 10.000000 
Rope4_Seg08 0.000000 0.000000 0.000000 0.000000 0.000000 0.000000 10.000000 
Rope4_Seg09 0.000000 0.000000 0.000000 0.000000 0.000000 0.000000 10.000000 
L_rear_hand01 0.000000 0.000000 0.000000 0.000000 0.000000 0.000000 10.000000 
L_rear_hand02 0.000000 0.000000 0.000000 0.000000 0.000000 0.000000 10.000000 
L_rear_hand03 0.000000 0.000000 0.000000 0.000000 0.000000 0.000000 10.000000 
#Beginning of Data. Separated by tabs
#Fr	Tx	Ty	Tz	Rx	Ry	Rz	SF
[MASTER]
3 20.757338 7.482460 256.337097 0.001660 0.001660 0.001660 257.284973
4 67.505180 10.101311 424.186462 0.001660 0.001660 0.001660 429.643036
[root]
3 -13.140167 -49.573521 1475.083252 -85.910316 -12.886465 -91.133263 1475.974609
4 -9.952689 -72.566193 1484.450317 -79.820358 -14.095968 -92.874626 1486.256348
[chest]
3 -84.512650 -34.090519 0.000000 -6.242948 -4.953901 174.421036 91.129311
4 -84.512650 -34.090519 0.000000 -7.555620 -7.382403 178.276169 91.129311
[L_mid_tent01]
3 27.299070 22.179136 -249.918716 -5.316070 9.177359 52.412598 252.381699
4 27.299065 22.179153 -249.918732 0.688134 4.196848 71.327698 252.381714
[R_mid_tent01]
3 23.228794 24.509907 226.238495 175.766403 -40.752808 63.414337 228.744751
4 23.228794 24.509907 226.238495 165.130493 -43.289455 79.187309 228.744751
[spine01]
3 -0.361383 -0.195265 0.000000 0.001927 0.001340 20.391365 0.410763
4 -0.361383 -0.195265 0.000000 0.001917 0.001355 19.487484 0.410763
[Bip01_Neck]
3 165.484543 71.581718 0.000119 176.643677 -1.657967 43.431915 180.302734
4 165.484543 71.581718 0.000119 176.643677 -1.657966 43.431908 180.302734
[L_humerus]
3 -13.983130 -135.272980 -120.471481 63.662861 81.349030 145.147736 181.680161
4 -13.983130 -135.272980 -120.471481 127.921989 73.757767 -155.917770 181.680161
[R_humerus]
3 -13.983309 -135.273102 125.287651 0.781067 -89.131371 84.099815 184.909012
4 -13.983309 -135.273102 125.287651 -160.138397 -76.217346 -122.200447 184.909012
[weapon_bone]
3 235.964890 -300.705902 0.000000 0.000000 -89.951546 -128.212341 382.234833
4 235.964890 -300.705902 0.000000 0.000000 -89.951546 -128.212341 382.234833
[Bip01_Head]
3 213.436676 185.736618 11.503569 7.984126 4.610148 -43.865776 283.170685
4 213.432922 185.747223 11.366884 9.851604 5.248483 -43.853466 283.169281
[eye_left_bone]
3 -24.626970 125.451866 -64.772606 0.000000 -90.000000 -99.840431 143.318359
4 -24.626970 125.451866 -64.772606 0.000000 -90.000000 -99.840431 143.318359
[eye_right_bone]
3 -24.626970 125.451866 64.327362 0.000000 -89.965736 80.156380 143.117676
4 -24.626970 125.451866 64.327362 0.000000 -89.972023 80.156387 143.117676
[L_forearm]
3 322.776093 0.000000 -0.000119 0.000407 -0.002312 -109.988533 322.776093
4 322.776093 0.000000 -0.000119 0.000412 -0.002311 -110.223854 322.776093
[L_front_hand]
3 241.149185 -0.042021 -3.300071 -178.667953 -1.835447 -27.422344 241.171753
4 241.149185 -0.042021 -3.300071 -178.667953 -1.835447 -27.422342 241.171753
[L_weapon_bone]
3 156.183838 0.000000 0.000000 0.000014 0.000007 0.000001 156.183838
4 156.183838 0.000000 0.000000 0.000014 0.000007 0.000001 156.183838
[L_front_hand01_01]
3 86.095154 20.947098 -0.655860 -0.366594 -0.477154 75.385574 88.609184
4 86.095154 20.947098 -0.655860 -0.364720 -0.478588 74.936234 88.609184
[L_front_hand02_01]
3 86.935165 -11.437475 24.513514 154.399796 -59.883835 -61.369587 91.046425
4 86.935165 -11.437475 24.513514 153.708527 -59.690228 -60.568150 91.046425
[L_front_hand03_01]
3 86.637497 -14.123976 -20.424902 -153.913849 58.118122 -62.702866 90.126129
4 86.637497 -14.123976 -20.424902 -153.279221 57.922546 -61.955151 90.126129
[L_front_hand01_02]
3 71.020905 -0.000179 0.000030 0.000319 -0.002325 -105.605537 71.020905
4 71.020905 -0.000179 0.000030 0.000318 -0.002326 -105.568283 71.020905
[L_front_hand02_02]
3 71.020927 -0.000119 0.000060 0.000319 -0.002325 -105.605537 71.020927
4 71.020927 -0.000119 0.000060 0.000318 -0.002326 -105.568283 71.020927
[L_front_hand03_02]
3 71.020905 -0.000060 0.000060 0.000319 -0.002325 -105.605537 71.020905
4 71.020905 -0.000060 0.000060 0.000318 -0.002326 -105.568283 71.020905
[R_forearm]
3 322.776428 -0.000060 0.000030 0.201774 0.066168 -108.636185 322.776428
4 322.776428 -0.000060 0.000030 0.201633 0.066596 -108.879547 322.776428
[R_front_hand]
3 238.847015 -0.006795 2.210259 -2.635298 -10.645461 -26.312506 238.857239
4 238.847015 -0.006795 2.210259 -2.635298 -10.645461 -26.312506 238.857239
[R_weapon_bone]
3 155.664093 0.002503 -0.000030 0.003487 0.001180 -90.988930 155.664078
4 155.664093 0.002503 -0.000030 0.003487 0.001180 -90.988930 155.664078
[R_front_hand01_01]
3 87.624611 14.231146 22.918642 -154.633499 -59.950619 61.746044 91.683487
4 87.624611 14.231146 22.918642 -153.951385 -59.756744 60.953659 91.683487
[R_front_hand02_01]
3 89.356956 14.367283 -19.491137 154.602661 58.302849 63.744389 92.579636
4 89.356956 14.367283 -19.491137 153.963715 58.112637 62.995499 92.579636
[R_front_hand03_01]
3 87.286232 -22.307278 -0.143439 0.162155 -0.423168 -75.767921 90.091743
4 87.286232 -22.307278 -0.143439 0.156617 -0.426811 -75.329910 90.091743
[R_front_hand01_02]
3 71.020905 0.000060 0.000119 0.002323 -0.000334 106.381714 71.020905
4 71.020905 0.000060 0.000119 0.002323 -0.000334 106.381721 71.020905
[R_front_hand02_02]
3 71.020844 -0.000030 -0.000119 0.002323 -0.000334 106.381714 71.020836
4 71.020844 -0.000030 -0.000119 0.002323 -0.000334 106.381721 71.020836
[R_front_hand03_02]
3 71.020905 0.000000 0.000030 0.002323 -0.000334 106.381714 71.020905
4 71.020905 0.000000 0.000030 0.002323 -0.000334 106.381721 71.020905
[null_rope01_connect]
3 328.732483 0.000000 -0.000238 -147.046448 -82.895821 -163.015884 328.732483
4 328.732483 0.000000 -0.000238 -25.718018 -82.547020 58.498466 328.732483
[Rope1_Seg01]
3 0.000000 0.000000 0.000000 -22.269133 65.018341 159.849075 0.000000
4 0.000000 0.000000 0.000000 -57.629475 68.502480 123.051567 0.000000
[Rope1_Seg02]
3 139.999863 -0.000179 0.000000 -2.442554 -0.855507 27.057848 139.999863
4 139.999863 -0.000179 0.000000 -5.444450 1.200077 16.360600 139.999863
[Rope1_Seg03]
3 139.999924 0.000060 -0.000060 1.697253 -3.114347 19.425671 139.999924
4 139.999924 0.000060 -0.000060 -2.678090 -0.884674 17.173887 139.999924
[Rope1_Seg04]
3 139.999924 -0.000060 -0.000119 2.325467 0.267931 7.878575 139.999924
4 139.999924 -0.000060 -0.000119 -0.336521 -2.618297 16.220278 139.999924
[Rope1_Seg05]
3 139.999832 0.000119 -0.000060 2.233330 4.760394 1.876898 139.999832
4 139.999832 0.000119 -0.000060 0.450384 1.529099 2.852003 139.999832
[Rope1_Seg06]
3 139.999954 0.000119 -0.000060 2.515162 7.345771 1.243796 139.999954
4 139.999954 0.000119 -0.000060 -0.516501 6.811341 -8.275501 139.999954
[Rope1_Seg07]
3 139.999985 0.000060 0.000000 2.298905 6.412934 2.706993 139.999985
4 139.999985 0.000060 0.000000 -0.615206 7.798061 -8.162047 139.999985
[Rope1_Seg09]
3 121.602913 0.000119 -0.000089 -89.793175 -1.359789 0.847147 121.602913
4 121.602913 0.000119 -0.000089 -89.793175 -1.359789 0.847147 121.602913
[L_mid_hand01]
3 103.859421 1.038730 8.195221 126.075401 -65.098549 -33.991913 104.187431
4 103.859421 1.038730 8.195221 122.214600 -62.281212 -29.682934 104.187431
[L_mid_hand02]
3 105.572853 -4.139662 -10.864139 -166.035263 42.723965 -69.273842 106.211075
4 105.572853 -4.139662 -10.864139 -163.055786 41.815430 -64.846169 106.211075
[L_mid_hand03]
3 104.641464 17.579376 -3.913581 -7.014418 17.452778 71.596474 106.179977
4 104.641464 17.579376 -3.913581 -8.059162 17.002192 68.062859 106.179977
[null_rope02_connect]
3 328.732849 0.000179 -0.000119 -137.256088 46.365715 0.527362 328.732849
4 328.732849 0.000179 -0.000119 -139.853699 37.754303 5.894947 328.732849
[Rope2_Seg01]
3 0.000050 0.000120 0.000041 -163.265350 -31.069405 -40.884502 0.000136
4 0.000046 0.000122 0.000061 -174.726410 -38.931820 -35.500423 0.000144
[Rope2_Seg02]
3 139.999741 -0.000060 -0.000119 -90.682999 -16.227249 -5.309433 139.999756
4 139.999741 -0.000060 -0.000119 -51.794575 -14.926846 -14.041378 139.999756
[Rope2_Seg03]
3 140.000107 0.000030 0.000000 -15.425648 4.566145 -7.704095 140.000107
4 140.000107 0.000030 0.000000 -14.609010 2.062123 -9.393467 140.000107
[Rope2_Seg04]
3 139.999802 0.000000 -0.000060 -25.720984 -1.353117 -12.301600 139.999802
4 139.999802 0.000000 -0.000060 -10.916287 2.252220 -9.082425 139.999802
[Rope2_Seg05]
3 139.999985 -0.000060 0.000119 -16.105213 2.890764 -12.712396 139.999985
4 139.999985 -0.000060 0.000119 -12.174605 4.416144 -14.200108 139.999985
[Rope2_Seg06]
3 139.999893 -0.000030 -0.000119 -5.297069 4.312413 -6.642131 139.999893
4 139.999893 -0.000030 -0.000119 -5.753691 5.899432 -10.309052 139.999893
[Rope2_Seg07]
3 139.999893 0.000060 -0.000060 -2.577584 3.259782 -4.160385 139.999893
4 139.999893 0.000060 -0.000060 -2.521271 4.652271 -6.446193 139.999893
[Rope2_Seg09]
3 121.338966 0.000089 -0.000060 33.793236 -1.359788 -0.847141 121.338966
4 121.338966 0.000089 -0.000060 33.793236 -1.359788 -0.847141 121.338966
[R_mid_hand01]
3 104.680779 11.144459 -10.335981 -17.548510 44.833435 68.572052 105.778534
4 104.680779 11.144459 -10.335981 -19.035433 44.336296 66.455574 105.778534
[R_mid_hand02]
3 104.070427 2.443552 8.231699 51.203640 -66.683899 36.975819 104.424065
4 104.070427 2.443552 8.231699 53.394081 -65.425781 34.575890 104.424065
[R_mid_hand03]
3 106.028137 -11.221827 -5.996406 -176.709671 15.475002 -75.137619 106.788818
4 106.028137 -11.221827 -5.996406 -176.276184 15.379536 -73.491829 106.788818
[spine02]
3 129.756927 0.001550 0.000119 0.413541 -4.039168 -13.734034 129.756927
4 129.756927 0.001550 0.000119 0.440434 -4.036089 -14.078959 129.756927
[spine03]
3 78.614067 0.081523 -4.898999 1.970549 3.797235 17.565786 78.766602
4 78.614067 0.081467 -4.898998 1.991348 3.784675 17.921860 78.766602
[pelvis]
3 169.435242 0.051022 0.000000 -0.060982 -0.180051 14.416888 169.435257
4 169.435242 0.051022 0.000000 -0.060457 -0.180228 14.082943 169.435257
[null_rope03_connect]
3 -1.257226 -2.466202 137.391083 -0.822552 -84.831726 65.121071 137.418976
4 -1.257226 -2.466202 137.391083 -0.849764 -78.932983 67.813728 137.418976
[null_rope04_connect]
3 -1.259640 -2.480268 -137.844437 -0.822552 -84.831726 65.121071 137.872513
4 -1.259640 -2.480268 -137.844437 -0.849764 -78.932983 67.813728 137.872513
[Rope3_Seg01]
3 0.000000 0.000000 0.000000 17.561743 25.715759 -80.089417 0.000000
4 0.000000 0.000000 0.000000 21.283077 22.125492 -68.425285 0.000000
[Rope3_Seg02]
3 139.999924 -0.000119 0.000060 -1.981022 -7.414360 9.847079 139.999924
4 139.999924 -0.000119 0.000060 -6.671967 -10.530980 14.767281 139.999924
[Rope3_Seg03]
3 139.999924 -0.000119 0.000119 -6.116117 -14.899810 15.764080 139.999924
4 139.999924 -0.000119 0.000119 -14.095496 -19.235920 19.638050 139.999924
[Rope3_Seg04]
3 139.999924 0.000119 0.000000 -6.912204 -13.479174 14.733191 139.999924
4 139.999924 0.000119 0.000000 -11.132595 -18.248348 12.943928 139.999924
[Rope3_Seg05]
3 139.999924 -0.000238 0.000060 6.692352 19.087734 0.279145 139.999924
4 139.999924 -0.000238 0.000060 2.898702 9.230108 6.149682 139.999924
[Rope3_Seg06]
3 139.999893 -0.000119 -0.000060 5.303833 10.061102 -0.873082 139.999893
4 139.999893 -0.000119 -0.000060 5.888895 10.482236 3.541376 139.999893
[Rope3_Seg07]
3 139.999771 0.000060 -0.000119 3.196044 4.915232 -0.321684 139.999771
4 139.999771 0.000060 -0.000119 2.445141 3.885233 2.138825 139.999771
[Rope3_Seg08]
3 139.999985 -0.000060 0.000000 2.288320 2.912787 -0.355810 139.999985
4 139.999985 -0.000060 0.000000 1.912733 2.454809 1.220175 139.999985
[Rope3_Seg09]
3 90.185997 -0.000179 -0.000060 89.793228 -1.359877 -0.847183 90.185997
4 90.185997 -0.000179 -0.000060 89.793228 -1.359877 -0.847183 90.185997
[R_rear_hand01]
3 103.366196 -6.073594 -10.757982 -176.918228 24.486242 -72.002144 104.101845
4 103.366196 -6.073594 -10.757982 -176.027405 24.361639 -69.845337 104.101845
[R_rear_hand02]
3 100.509819 12.039542 -7.992327 -14.131634 36.459908 70.059998 101.543350
4 100.509819 12.039542 -7.992327 -15.526569 35.959644 67.697304 101.543350
[R_rear_hand03]
3 101.539970 5.215704 5.435467 73.022980 -70.158020 19.886856 101.819031
4 101.539970 5.215704 5.435467 74.484840 -68.272476 18.324221 101.819031
[Rope4_Seg01]
3 0.000012 -0.000038 -0.000153 -102.760330 28.203064 -106.840797 0.000158
4 0.000023 -0.000038 -0.000153 -96.384682 27.704594 -92.886337 0.000159
[Rope4_Seg02]
3 139.999985 0.000060 0.000119 -0.434490 -9.341515 -0.067043 139.999985
4 139.999985 0.000060 0.000119 0.387193 -9.435799 0.078890 139.999985
[Rope4_Seg03]
3 139.999924 0.000000 -0.000238 0.246527 -11.163247 -0.166535 139.999924
4 139.999924 0.000000 -0.000238 1.223077 -10.698932 0.165326 139.999924
[Rope4_Seg04]
3 139.999985 0.000000 0.000119 2.778554 -21.334105 -3.300853 139.999985
4 139.999985 0.000000 0.000119 3.420784 -17.252462 -1.923695 139.999985
[Rope4_Seg05]
3 139.999802 -0.000060 -0.000119 3.689573 -12.421820 -0.190940 139.999802
4 139.999802 -0.000060 -0.000119 5.116522 -12.963584 -0.186399 139.999802
[Rope4_Seg06]
3 139.999924 0.000000 0.000060 0.802206 15.794698 6.952653 139.999924
4 139.999924 0.000000 0.000060 1.808748 6.720371 4.930330 139.999924
[Rope4_Seg07]
3 139.999802 0.000000 0.000000 1.744178 24.809404 9.104653 139.999802
4 139.999802 0.000000 0.000000 0.770216 20.624794 7.949762 139.999802
[Rope4_Seg08]
3 139.999924 0.000000 0.000119 -1.155736 8.218418 3.499387 139.999924
4 139.999924 0.000000 0.000119 -1.071127 9.288656 4.396645 139.999924
[Rope4_Seg09]
3 90.185791 0.000060 0.000060 -135.617828 2.228885 0.850567 90.185791
4 90.185791 0.000060 0.000060 -135.617828 2.228885 0.850567 90.185791
[L_rear_hand01]
3 101.696655 -8.392275 -7.654577 -17.565516 -35.113850 115.806488 102.329041
4 101.696655 -8.392275 -7.654577 -21.754835 -32.891220 123.292336 102.329041
[L_rear_hand02]
3 102.726799 -1.568258 5.773216 76.237793 65.389854 163.579773 102.900848
4 102.726799 -1.568258 5.773216 78.924995 58.957420 166.614075 102.900848
[L_rear_hand03]
3 104.552910 9.721220 -10.420293 -174.689285 -24.125307 -113.408821 105.519653
4 104.552910 9.721220 -10.420293 -171.809464 -23.347528 -120.557564 105.519653
